<svg xmlns="http://www.w3.org/2000/svg" xmlns:xlink="http://www.w3.org/1999/xlink" version="1.1" x="0px" y="0px" viewBox="0 0 100 100" style="enable-background:new 0 0 100 100;" xml:space="preserve"><path d="M49.2,12.2L2.1,43.8l4,6l9.5-6.4v43.4h68.3V43.8l9.2,6.1l4-6L49.2,12.2z M46.6,67c0,1.5-1.3,2.8-2.8,2.8h-6.1  c-1.5,0-2.8-1.3-2.8-2.8v-5.8c0-1.5,1.3-2.8,2.8-2.8h6.1c1.5,0,2.8,1.3,2.8,2.8V67z M46.6,52c0,1.5-1.3,2.8-2.8,2.8h-6.1  c-1.5,0-2.8-1.3-2.8-2.8v-5.8c0-1.5,1.3-2.8,2.8-2.8h6.1c1.5,0,2.8,1.3,2.8,2.8V52z M63.1,67c0,1.5-1.3,2.8-2.8,2.8h-6.1  c-1.5,0-2.8-1.3-2.8-2.8v-5.8c0-1.5,1.3-2.8,2.8-2.8h6.1c1.5,0,2.8,1.3,2.8,2.8V67z M63.1,52c0,1.5-1.3,2.8-2.8,2.8h-6.1  c-1.5,0-2.8-1.3-2.8-2.8v-5.8c0-1.5,1.3-2.8,2.8-2.8h6.1c1.5,0,2.8,1.3,2.8,2.8V52z"></path></svg>