<svg xmlns="http://www.w3.org/2000/svg" xmlns:xlink="http://www.w3.org/1999/xlink" version="1.1" x="0px" y="0px" viewBox="0 0 100 100" style="enable-background:new 0 0 100 100;" xml:space="preserve"><path d="M62,46.9c0-0.1-0.3-0.6-1.2-0.7H39.5c-0.9,0.1-1.2,0.7-1.2,0.8l0,0.1l-3.6,8.4l31.1,0L62,46.9z"></path><path d="M63.3,60.9c-1.5,0-2.7,1.2-2.7,2.7c0,1.5,1.2,2.7,2.7,2.7s2.8-1.2,2.7-2.7C66.1,62.1,64.9,60.9,63.3,60.9z"></path><path d="M36.6,60.9c-1.5,0-2.7,1.2-2.7,2.7c0,1.5,1.2,2.7,2.7,2.7c1.5,0,2.7-1.2,2.7-2.7S38.2,60.9,36.6,60.9z"></path><path d="M49.9,12.4L2.7,44.1l4,6l9.5-6.4v43.4h68.3V44l9.2,6.1l4-6L49.9,12.4z M72.1,59.2l-1.1,0.1c1.6,3.2,3.1,8.8-1.6,13.5  c-0.4,0.5-1,0.9-1.7,1.1v2.7c0,1-0.8,1.9-1.9,1.9h-2.5c-1,0-1.9-0.8-1.9-1.9v-2.5H39.1v2.6c0,1-0.8,1.9-1.9,1.9h-2.5  c-1,0-1.9-0.8-1.9-1.9V74c-0.6-0.1-1.7-1-1.8-1.1c-4.6-4.7-2.8-10.3-1.2-13.5l-1.3-0.1c-2.5-0.6-2.2-2.5-1.9-3.6s1.1-1.3,1.1-1.3  l3.9,0.4l3.6-8.7c0.3-1,1.5-2.6,4-2.8h0.1h21.7c2.4,0.2,3.6,1.8,4,2.8l3.7,8.7l4.1-0.4c0,0,0.9,0.2,1.1,1.3  C74.2,56.7,74.5,58.5,72.1,59.2z"></path></svg>