<svg xmlns="http://www.w3.org/2000/svg" xmlns:xlink="http://www.w3.org/1999/xlink" version="1.1" x="0px" y="0px" viewBox="0 0 100 100" style="enable-background:new 0 0 100 100;" xml:space="preserve"><path d="M56,54.6c-2.8,0-5.1-2.3-5.1-5.1c0-2.2,1.4-4.1,3.4-4.8C52.9,44.3,51.5,44,50,44c-7.1,0-12.8,5.7-12.8,12.8  S42.9,69.6,50,69.6c7.1,0,12.8-5.7,12.8-12.8c0-2.4-0.7-4.6-1.8-6.5C60.6,52.7,58.5,54.6,56,54.6z"></path><path d="M50,12.2L2.9,43.8l4,6l9.5-6.4v43.4h68.3V43.8l9.2,6.1l4-6L50,12.2z M50,74.3c-9.6,0-17.5-7.8-17.5-17.5  c0-9.6,7.8-17.5,17.5-17.5c9.6,0,17.5,7.8,17.5,17.5C67.5,66.4,59.6,74.3,50,74.3z"></path></svg>