<svg xmlns:dc="http://purl.org/dc/elements/1.1/" xmlns:cc="http://creativecommons.org/ns#" xmlns:rdf="http://www.w3.org/1999/02/22-rdf-syntax-ns#" xmlns:svg="http://www.w3.org/2000/svg" xmlns="http://www.w3.org/2000/svg" xmlns:sodipodi="http://sodipodi.sourceforge.net/DTD/sodipodi-0.dtd" xmlns:inkscape="http://www.inkscape.org/namespaces/inkscape" version="1.1" x="0px" y="0px" viewBox="0 0 100 100"><g transform="translate(0,-952.36218)"><path style="text-indent:0;text-transform:none;direction:ltr;block-progression:tb;baseline-shift:baseline;color:#000000;enable-background:accumulate;" d="m 22,961.36218 c -0.5236,5e-5 -0.9999,0.47642 -1,1 l 0,21 -6,0 c -3.8606,0 -7,3.1394 -7,7 l 0,30.00002 c 0,3.8606 3.1394,7 7,7 l 6,0 0,15 c 10e-5,0.5236 0.4764,0.9999 1,1 l 56,0 c 0.5236,-10e-5 0.9999,-0.4764 1,-1 l 0,-15 6,0 c 3.8606,0 7,-3.1394 7,-7 l 0,-30.00002 c 0,-3.8606 -3.1394,-7 -7,-7 l -6,0 0,-21 c -1e-4,-0.52358 -0.4764,-0.99995 -1,-1 z m 1,2 54,0 0,20 -54,0 z m -8,22 6.8438,0 56.3437,0 6.8125,0 c 2.7871,0 5,2.2129 5,5 l 0,30.00002 c 0,2.7871 -2.2129,5 -5,5 l -6,0 0,-15 c -1e-4,-0.5236 -0.4764,-1 -1,-1 l -56,0 c -0.5236,0 -0.9999,0.4764 -1,1 l 0,15 -6,0 c -2.7871,0 -5,-2.2129 -5,-5 l 0,-30.00002 c 0,-2.7871 2.2129,-5 5,-5 z m 63,7 c -2.7496,0 -5,2.2504 -5,5 0,2.74962 2.2504,5.00002 5,5.00002 2.7496,0 5,-2.2504 5,-5.00002 0,-2.7496 -2.2504,-5 -5,-5 z m 0,2 c 1.6687,0 3,1.3313 3,3 0,1.6687 -1.3313,3.00002 -3,3.00002 -1.6687,0 -3,-1.33132 -3,-3.00002 0,-1.6687 1.3313,-3 3,-3 z m -55,17.00002 54,0 0,30 -54,0 z" fill="#000000" fill-opacity="1" stroke="none" marker="none" visibility="visible" display="inline" overflow="visible"></path></g></svg>