<svg xmlns="http://www.w3.org/2000/svg" xmlns:xlink="http://www.w3.org/1999/xlink" version="1.1" x="0px" y="0px" viewBox="0 0 24 24" style="enable-background:new 0 0 24 24;" xml:space="preserve"><g><path d="M20.845,2.745L3.441,10.886c-0.423,0.198-0.69,0.611-0.696,1.078c-0.006,0.467,0.25,0.887,0.667,1.096l5.019,2.509   l2.509,5.018c0.206,0.412,0.62,0.667,1.08,0.667c0.474,0,0.893-0.267,1.094-0.696l8.141-17.404l-0.241-0.169L20.845,2.745z    M3.688,12.509c-0.208-0.104-0.33-0.305-0.327-0.537c0.003-0.232,0.13-0.43,0.341-0.528l15.817-7.398L8.6,14.965L3.688,12.509z    M12.556,20.298c-0.1,0.213-0.3,0.341-0.536,0.341c-0.229,0-0.426-0.122-0.529-0.327L9.035,15.4L19.954,4.481L12.556,20.298z"></path></g></svg>